<svg width="118" height="108" viewBox="0 0 118 108" fill="none" xmlns="http://www.w3.org/2000/svg">
<path d="M58.9219 5.65727L22.0497 15.5835C8.61299 19.2007 3.03421 28.8775 6.62453 42.3396L16.4675 79.246C20.0578 92.7081 29.705 98.286 43.1417 94.6687L80.0139 84.7425C93.4506 81.1253 98.9943 71.4579 95.404 57.9959L85.561 21.0894C81.9707 7.62733 72.3586 2.04001 58.9219 5.65727Z" fill="url(#paint0_linear_2860_182)"/>
<g opacity="0.5" filter="url(#filter0_f_2860_182)">
<path d="M56.5773 22.0101L32.2066 28.5708C23.3256 30.9616 19.5734 37.1143 21.8319 45.5827L28.0237 68.799C30.2822 77.2674 36.5937 80.7109 45.4747 78.32L69.8454 71.7593C78.7265 69.3685 82.4555 63.2221 80.1969 54.7537L74.0051 31.5373C71.7466 23.0689 65.4584 19.6192 56.5773 22.0101Z" fill="#494949"/>
</g>
<g filter="url(#filter1_b_2860_182)">
<path d="M84.5561 25.0781H49.1535C35.311 25.0781 26.001 34.8268 26.001 49.327V82.7921C26.001 97.2513 35.311 107 49.1535 107H84.5561C98.3987 107 107.668 97.2513 107.668 82.7921V49.327C107.668 34.8268 98.3987 25.0781 84.5561 25.0781Z" fill="#505050" fill-opacity="0.35"/>
<path d="M84.5561 24.5781H49.1535C42.1104 24.5781 36.1865 27.061 32.0247 31.4196C27.8647 35.7763 25.501 41.9689 25.501 49.327V82.7921C25.501 90.13 27.8649 96.3123 32.0249 100.664C36.1867 105.017 42.1104 107.5 49.1535 107.5H84.5561C91.5993 107.5 97.5131 105.017 101.665 100.663C105.814 96.3117 108.168 90.1294 108.168 82.7921V49.327C108.168 41.9695 105.815 35.777 101.665 31.4201C97.5132 27.0611 91.5994 24.5781 84.5561 24.5781Z" stroke="url(#paint1_linear_2860_182)" stroke-linecap="round" stroke-linejoin="round"/>
</g>
<g filter="url(#filter2_b_2860_182)">
<path d="M112 19.0597C108.686 19.0597 106 21.7544 106 25.0784C106 28.4025 108.686 31.0972 112 31.0972C115.314 31.0972 118 28.4025 118 25.0784C118 23.4822 117.368 21.9513 116.243 20.8225C115.117 19.6938 113.591 19.0597 112 19.0597Z" fill="url(#paint2_linear_2860_182)"/>
</g>
<g filter="url(#filter3_bd_2860_182)">
<path d="M88.1982 58.785L76.5286 73.8906C76.0377 74.5472 75.3013 74.9755 74.4887 75.0773C73.6761 75.179 72.8571 74.9454 72.2199 74.4301L61.0171 65.6185L50.9274 78.71C50.1968 79.8739 48.7738 80.3968 47.465 79.9824C46.1563 79.568 45.292 78.3207 45.362 76.9477C45.3559 76.2683 45.5842 75.6077 46.0083 75.0775L58.0728 59.4683C58.5579 58.817 59.2844 58.3889 60.0884 58.2806C60.8924 58.1724 61.7061 58.3931 62.3456 58.8929L73.5484 67.7405L83.3867 55.0446C83.8598 54.39 84.5775 53.9554 85.376 53.8402C86.1744 53.725 86.9854 53.9389 87.6237 54.4331C88.9423 55.4676 89.1972 57.3665 88.1982 58.7131V58.785Z" fill="url(#paint3_linear_2860_182)"/>
<path d="M76.3704 73.7683L76.3703 73.7683L76.3685 73.7708C75.91 74.3839 75.2225 74.7838 74.4638 74.8788C73.7052 74.9738 72.9406 74.7557 72.3456 74.2746L72.3435 74.2729L61.1408 65.4613L60.982 65.3364L60.8587 65.4964L50.769 78.5879L50.7632 78.5955L50.7581 78.6037C50.0758 79.6905 48.7472 80.1786 47.5254 79.7917C46.3036 79.4048 45.4963 78.2403 45.5617 76.9579L45.5621 76.9579L45.562 76.9459C45.5563 76.3125 45.7692 75.6967 46.1645 75.2024L46.1645 75.2024L46.1665 75.1998L58.231 59.5907L58.2311 59.5907L58.2332 59.5878C58.6862 58.9796 59.3645 58.5799 60.1151 58.4789C60.8656 58.3778 61.6251 58.5837 62.2222 59.0503C62.2223 59.0503 62.2224 59.0504 62.2225 59.0505L73.4245 67.8974L73.5829 68.0225L73.7065 67.863L83.5448 55.1671L83.5449 55.1671L83.5489 55.1617C83.9902 54.551 84.6597 54.1456 85.4045 54.0382C86.1492 53.9307 86.9055 54.1301 87.5009 54.591C88.7336 55.5586 88.9719 57.3345 88.0376 58.5939L87.9982 58.647V58.7131V58.7167L76.3704 73.7683Z" stroke="url(#paint4_linear_2860_182)" stroke-width="0.4"/>
</g>
<defs>
<filter id="filter0_f_2860_182" x="4.18946" y="4.26886" width="93.6521" height="91.793" filterUnits="userSpaceOnUse" color-interpolation-filters="sRGB">
<feFlood flood-opacity="0" result="BackgroundImageFix"/>
<feBlend mode="normal" in="SourceGraphic" in2="BackgroundImageFix" result="shape"/>
<feGaussianBlur stdDeviation="8.5" result="effect1_foregroundBlur_2860_182"/>
</filter>
<filter id="filter1_b_2860_182" x="1.00096" y="0.078064" width="131.667" height="131.922" filterUnits="userSpaceOnUse" color-interpolation-filters="sRGB">
<feFlood flood-opacity="0" result="BackgroundImageFix"/>
<feGaussianBlur in="BackgroundImageFix" stdDeviation="12"/>
<feComposite in2="SourceAlpha" operator="in" result="effect1_backgroundBlur_2860_182"/>
<feBlend mode="normal" in="SourceGraphic" in2="effect1_backgroundBlur_2860_182" result="shape"/>
</filter>
<filter id="filter2_b_2860_182" x="91" y="4.05969" width="42" height="42.0375" filterUnits="userSpaceOnUse" color-interpolation-filters="sRGB">
<feFlood flood-opacity="0" result="BackgroundImageFix"/>
<feGaussianBlur in="BackgroundImageFix" stdDeviation="7.5"/>
<feComposite in2="SourceAlpha" operator="in" result="effect1_backgroundBlur_2860_182"/>
<feBlend mode="normal" in="SourceGraphic" in2="effect1_backgroundBlur_2860_182" result="shape"/>
</filter>
<filter id="filter3_bd_2860_182" x="30.358" y="38.8097" width="73.4497" height="56.3135" filterUnits="userSpaceOnUse" color-interpolation-filters="sRGB">
<feFlood flood-opacity="0" result="BackgroundImageFix"/>
<feGaussianBlur in="BackgroundImageFix" stdDeviation="7.5"/>
<feComposite in2="SourceAlpha" operator="in" result="effect1_backgroundBlur_2860_182"/>
<feColorMatrix in="SourceAlpha" type="matrix" values="0 0 0 0 0 0 0 0 0 0 0 0 0 0 0 0 0 0 127 0" result="hardAlpha"/>
<feOffset dx="5" dy="5"/>
<feGaussianBlur stdDeviation="5"/>
<feColorMatrix type="matrix" values="0 0 0 0 0.416667 0 0 0 0 0.416667 0 0 0 0 0.416667 0 0 0 0.5 0"/>
<feBlend mode="normal" in2="effect1_backgroundBlur_2860_182" result="effect2_dropShadow_2860_182"/>
<feBlend mode="normal" in="SourceGraphic" in2="effect2_dropShadow_2860_182" result="shape"/>
</filter>
<linearGradient id="paint0_linear_2860_182" x1="58.2379" y1="53.8992" x2="-2.23868" y2="106.213" gradientUnits="userSpaceOnUse">
<stop stop-color="#252525"/>
<stop offset="1" stop-color="#212121"/>
</linearGradient>
<linearGradient id="paint1_linear_2860_182" x1="39.001" y1="34.6221" x2="91.2926" y2="99.1848" gradientUnits="userSpaceOnUse">
<stop stop-color="white" stop-opacity="0.25"/>
<stop offset="1" stop-color="white" stop-opacity="0"/>
</linearGradient>
<linearGradient id="paint2_linear_2860_182" x1="112.883" y1="25.8845" x2="102.327" y2="31.0015" gradientUnits="userSpaceOnUse">
<stop stop-color="#252525"/>
<stop offset="1" stop-color="#212121"/>
</linearGradient>
<linearGradient id="paint3_linear_2860_182" x1="85.7272" y1="58.5614" x2="37.4169" y2="61.1623" gradientUnits="userSpaceOnUse">
<stop stop-color="white"/>
<stop offset="1" stop-color="white" stop-opacity="0.2"/>
</linearGradient>
<linearGradient id="paint4_linear_2860_182" x1="52.2745" y1="56.8752" x2="65.8264" y2="84.5902" gradientUnits="userSpaceOnUse">
<stop stop-color="white" stop-opacity="0.25"/>
<stop offset="1" stop-color="white" stop-opacity="0"/>
</linearGradient>
</defs>
</svg>
