<svg width="172" height="168" viewBox="0 0 172 168" fill="none" xmlns="http://www.w3.org/2000/svg">
<path fill-rule="evenodd" clip-rule="evenodd" d="M61.8037 49.8332C60.692 51.1909 58.2513 55.7821 57.0726 58.1142L57.1209 58.132L42.8985 87.458C36.8011 100.031 41.3425 110.896 54.4345 115.647L86.7722 127.382C99.9881 132.178 111.972 127.497 118.029 115.008L132.206 85.7762L133.32 86.1863C134.391 83.8101 136.431 79.0287 136.74 77.4228C138.734 68.3082 134.41 60.3595 125.125 55.9937L87.3631 42.091C77.243 39.265 67.8526 42.1221 61.8037 49.8332Z" fill="url(#paint0_linear_2860_95)"/>
<g opacity="0.5" filter="url(#filter0_f_2860_95)">
<path d="M106.76 63.0635L85.4179 55.3204C77.6766 52.5119 71.1814 55.3035 67.7751 62.8888L56.2386 88.5796C52.7765 96.2894 55.3406 102.252 63.082 105.061L84.4242 112.804C92.2903 115.658 98.6135 112.919 102.076 105.209L113.612 79.5187C117.018 71.9333 114.626 65.9173 106.76 63.0635Z" fill="#696969"/>
</g>
<g filter="url(#filter1_b_2860_95)">
<mask id="path-3-outside-1_2860_95" maskUnits="userSpaceOnUse" x="61.5249" y="59.8419" width="90" height="84" fill="black">
<rect fill="white" x="61.5249" y="59.8419" width="90" height="84"/>
<path fill-rule="evenodd" clip-rule="evenodd" d="M65.2598 78.015C64.8291 79.5781 64.6 84.4343 64.5405 86.8812H147.983C147.924 84.4302 147.695 79.5364 147.269 78.015C145.07 69.303 137.51 63.6798 126.927 62.8419H85.6017C74.9268 63.6381 67.4589 69.2238 65.2598 78.015ZM64.5249 86.8819V118.616C64.5249 131.788 73.7796 140 88.3029 140H124.176C138.837 140 148 131.955 148 118.87V86.8819H64.5249ZM83.5839 105.031C83.6756 106.945 85.4165 108.449 87.524 108.362C89.5857 108.283 91.235 106.699 91.1434 104.777C91.0976 102.905 89.4024 101.442 87.3408 101.442C85.2333 101.53 83.5839 103.114 83.5839 105.031ZM102.414 105.031C102.506 106.945 104.247 108.449 106.354 108.362C108.416 108.283 110.065 106.699 109.974 104.777C109.928 102.905 108.233 101.442 106.171 101.442C104.063 101.53 102.414 103.114 102.414 105.031ZM121.244 120.159C121.244 122.076 122.939 123.66 125.047 123.702C127.2 123.702 128.941 122.118 128.941 120.159C128.941 118.204 127.2 116.62 125.047 116.62H125.001C122.893 116.662 121.198 118.242 121.244 120.159ZM106.354 123.493C104.247 123.58 102.506 122.076 102.414 120.158C102.414 118.241 104.063 116.661 106.171 116.573C108.233 116.573 109.928 118.036 109.974 119.912C110.065 121.83 108.416 123.414 106.354 123.493ZM87.4781 123.493C85.3706 123.58 83.6297 122.076 83.538 120.158C83.538 118.241 85.1874 116.661 87.2949 116.573C89.3566 116.573 91.0517 118.036 91.0975 119.912C91.1892 121.83 89.5398 123.414 87.4781 123.493ZM125.046 101.488C122.939 101.53 121.29 103.072 121.29 104.989V105.031C121.335 106.944 123.076 108.403 125.184 108.362C127.246 108.324 128.895 106.74 128.849 104.823C128.757 102.984 127.108 101.488 125.046 101.488Z"/>
</mask>
<path fill-rule="evenodd" clip-rule="evenodd" d="M65.2598 78.015C64.8291 79.5781 64.6 84.4343 64.5405 86.8812H147.983C147.924 84.4302 147.695 79.5364 147.269 78.015C145.07 69.303 137.51 63.6798 126.927 62.8419H85.6017C74.9268 63.6381 67.4589 69.2238 65.2598 78.015ZM64.5249 86.8819V118.616C64.5249 131.788 73.7796 140 88.3029 140H124.176C138.837 140 148 131.955 148 118.87V86.8819H64.5249ZM83.5839 105.031C83.6756 106.945 85.4165 108.449 87.524 108.362C89.5857 108.283 91.235 106.699 91.1434 104.777C91.0976 102.905 89.4024 101.442 87.3408 101.442C85.2333 101.53 83.5839 103.114 83.5839 105.031ZM102.414 105.031C102.506 106.945 104.247 108.449 106.354 108.362C108.416 108.283 110.065 106.699 109.974 104.777C109.928 102.905 108.233 101.442 106.171 101.442C104.063 101.53 102.414 103.114 102.414 105.031ZM121.244 120.159C121.244 122.076 122.939 123.66 125.047 123.702C127.2 123.702 128.941 122.118 128.941 120.159C128.941 118.204 127.2 116.62 125.047 116.62H125.001C122.893 116.662 121.198 118.242 121.244 120.159ZM106.354 123.493C104.247 123.58 102.506 122.076 102.414 120.158C102.414 118.241 104.063 116.661 106.171 116.573C108.233 116.573 109.928 118.036 109.974 119.912C110.065 121.83 108.416 123.414 106.354 123.493ZM87.4781 123.493C85.3706 123.58 83.6297 122.076 83.538 120.158C83.538 118.241 85.1874 116.661 87.2949 116.573C89.3566 116.573 91.0517 118.036 91.0975 119.912C91.1892 121.83 89.5398 123.414 87.4781 123.493ZM125.046 101.488C122.939 101.53 121.29 103.072 121.29 104.989V105.031C121.335 106.944 123.076 108.403 125.184 108.362C127.246 108.324 128.895 106.74 128.849 104.823C128.757 102.984 127.108 101.488 125.046 101.488Z" fill="#515151" fill-opacity="0.35"/>
<path d="M64.5405 86.8812L61.6983 86.812C61.6797 87.5778 61.9709 88.3187 62.5059 88.8669C63.0409 89.4151 63.7745 89.7242 64.5405 89.7242V86.8812ZM65.2598 78.015L68.0006 78.7701C68.0066 78.7484 68.0123 78.7267 68.0178 78.7049L65.2598 78.015ZM147.983 86.8812V89.7242C148.749 89.7242 149.483 89.4151 150.018 88.8669C150.553 88.3188 150.844 87.5779 150.826 86.8121L147.983 86.8812ZM147.269 78.015L144.512 78.7108C144.518 78.7345 144.524 78.7581 144.531 78.7816L147.269 78.015ZM126.927 62.8419L127.151 60.0078C127.077 60.0019 127.002 59.9989 126.927 59.9989V62.8419ZM85.6017 62.8419V59.9989C85.5311 59.9989 85.4606 60.0016 85.3902 60.0068L85.6017 62.8419ZM64.5249 86.8819V84.039C62.9548 84.039 61.6819 85.3118 61.6819 86.8819H64.5249ZM148 86.8819H150.843C150.843 85.3118 149.57 84.039 148 84.039V86.8819ZM87.524 108.362L87.4149 105.521L87.406 105.521L87.524 108.362ZM83.5839 105.031H80.7409C80.7409 105.077 80.742 105.122 80.7442 105.167L83.5839 105.031ZM91.1434 104.777L88.3013 104.847C88.3018 104.868 88.3026 104.89 88.3036 104.912L91.1434 104.777ZM87.3408 101.442V98.5992C87.3014 98.5992 87.2621 98.6001 87.2228 98.6017L87.3408 101.442ZM106.354 108.362L106.245 105.521L106.236 105.521L106.354 108.362ZM102.414 105.031H99.571C99.571 105.077 99.5721 105.122 99.5743 105.167L102.414 105.031ZM109.974 104.777L107.131 104.847C107.132 104.868 107.133 104.89 107.134 104.912L109.974 104.777ZM106.171 101.442V98.5992C106.132 98.5992 106.092 98.6001 106.053 98.6017L106.171 101.442ZM125.047 123.702L124.99 126.545C125.009 126.545 125.028 126.545 125.047 126.545V123.702ZM121.244 120.159H124.087C124.087 120.136 124.087 120.114 124.086 120.091L121.244 120.159ZM125.001 116.62V113.777C124.982 113.777 124.963 113.777 124.945 113.778L125.001 116.62ZM102.414 120.158H99.571C99.571 120.203 99.5721 120.249 99.5743 120.294L102.414 120.158ZM106.354 123.493L106.245 120.652L106.236 120.652L106.354 123.493ZM106.171 116.573V113.73C106.132 113.73 106.092 113.731 106.053 113.733L106.171 116.573ZM109.974 119.912L107.131 119.982C107.132 120.004 107.133 120.026 107.134 120.048L109.974 119.912ZM83.538 120.158H80.695C80.695 120.203 80.6961 120.249 80.6983 120.294L83.538 120.158ZM87.4781 123.493L87.369 120.652L87.3601 120.652L87.4781 123.493ZM87.2949 116.573V113.73C87.2555 113.73 87.2162 113.731 87.1769 113.733L87.2949 116.573ZM91.0975 119.912L88.2554 119.982C88.2559 120.004 88.2567 120.026 88.2578 120.048L91.0975 119.912ZM125.046 101.488V98.6449C125.028 98.6449 125.009 98.645 124.99 98.6454L125.046 101.488ZM121.29 105.031H118.447C118.447 105.054 118.447 105.076 118.447 105.099L121.29 105.031ZM125.184 108.362L125.132 105.519L125.128 105.519L125.184 108.362ZM128.849 104.823L131.691 104.755C131.691 104.73 131.69 104.706 131.689 104.681L128.849 104.823ZM67.3826 86.9504C67.4116 85.7601 67.4821 83.9776 67.5972 82.3127C67.7203 80.5312 67.8752 79.2256 68.0006 78.7701L62.5189 77.2598C62.2137 78.3675 62.0387 80.2716 61.9247 81.9207C61.8027 83.6864 61.7289 85.5554 61.6983 86.812L67.3826 86.9504ZM147.983 84.0382H64.5405V89.7242H147.983V84.0382ZM144.531 78.7816C144.65 79.207 144.804 80.4997 144.927 82.294C145.042 83.9641 145.112 85.7575 145.141 86.9503L150.826 86.8121C150.795 85.5539 150.721 83.6749 150.6 81.905C150.487 80.2593 150.313 78.3444 150.006 77.2483L144.531 78.7816ZM126.702 65.676C136.365 66.441 142.678 71.4437 144.512 78.7108L150.025 77.3192C147.461 67.1623 138.655 60.9186 127.151 60.0078L126.702 65.676ZM85.6017 65.6849H126.927V59.9989H85.6017V65.6849ZM68.0178 78.7049C69.8554 71.3589 76.0754 66.4033 85.8131 65.677L85.3902 60.0068C73.7781 60.8729 65.0624 67.0886 62.5018 77.3251L68.0178 78.7049ZM67.3679 118.616V86.8819H61.6819V118.616H67.3679ZM88.3029 137.157C81.5626 137.157 76.3531 135.256 72.8648 132.13C69.4118 129.037 67.3679 124.499 67.3679 118.616H61.6819C61.6819 125.905 64.2654 132.06 69.0706 136.365C73.8405 140.639 80.5199 142.843 88.3029 142.843V137.157ZM124.176 137.157H88.3029V142.843H124.176V137.157ZM145.157 118.87C145.157 124.71 143.136 129.175 139.702 132.212C136.227 135.286 131.006 137.157 124.176 137.157V142.843C132.008 142.843 138.698 140.692 143.469 136.472C148.282 132.215 150.843 126.115 150.843 118.87H145.157ZM145.157 86.8819V118.87H150.843V86.8819H145.157ZM64.5249 89.7249H148V84.039H64.5249V89.7249ZM87.406 105.521C87.0661 105.535 86.8045 105.421 86.6407 105.282C86.478 105.143 86.4288 105.002 86.4237 104.895L80.7442 105.167C80.9195 108.828 84.166 111.347 87.642 111.202L87.406 105.521ZM88.3036 104.912C88.3072 104.986 88.2879 105.096 88.1502 105.231C88.004 105.374 87.7503 105.508 87.4149 105.521L87.6331 111.203C90.9838 111.074 94.1632 108.417 93.9832 104.642L88.3036 104.912ZM87.3408 104.285C87.7015 104.285 87.9722 104.413 88.1287 104.55C88.2779 104.68 88.2998 104.786 88.3013 104.847L93.9855 104.707C93.895 101.007 90.6425 98.5992 87.3408 98.5992V104.285ZM86.4269 105.031C86.4269 104.916 86.4715 104.763 86.6375 104.605C86.807 104.442 87.0868 104.298 87.4587 104.283L87.2228 98.6017C83.8219 98.7429 80.7409 101.37 80.7409 105.031H86.4269ZM106.236 105.521C105.896 105.535 105.635 105.421 105.471 105.282C105.308 105.143 105.259 105.002 105.254 104.895L99.5743 105.167C99.7496 108.828 102.996 111.347 106.472 111.202L106.236 105.521ZM107.134 104.912C107.137 104.986 107.118 105.096 106.98 105.231C106.834 105.374 106.58 105.508 106.245 105.521L106.463 111.203C109.814 111.074 112.993 108.417 112.813 104.642L107.134 104.912ZM106.171 104.285C106.532 104.285 106.802 104.413 106.959 104.55C107.108 104.68 107.13 104.786 107.131 104.847L112.816 104.707C112.725 101.007 109.473 98.5992 106.171 98.5992V104.285ZM105.257 105.031C105.257 104.916 105.302 104.763 105.468 104.605C105.637 104.442 105.917 104.298 106.289 104.283L106.053 98.6017C102.652 98.7429 99.571 101.37 99.571 105.031H105.257ZM125.103 120.86C124.747 120.853 124.468 120.717 124.294 120.555C124.123 120.396 124.087 120.251 124.087 120.159H118.401C118.401 123.857 121.578 126.477 124.99 126.545L125.103 120.86ZM126.098 120.159C126.098 120.263 126.058 120.408 125.888 120.562C125.714 120.721 125.425 120.859 125.047 120.859V126.545C128.511 126.545 131.784 123.935 131.784 120.159H126.098ZM125.047 119.463C125.425 119.463 125.714 119.601 125.889 119.76C126.059 119.915 126.098 120.058 126.098 120.159H131.784C131.784 116.385 128.509 113.777 125.047 113.777V119.463ZM125.001 119.463H125.047V113.777H125.001V119.463ZM124.086 120.091C124.085 120.024 124.105 119.905 124.261 119.759C124.423 119.607 124.697 119.47 125.057 119.462L124.945 113.778C121.557 113.845 118.312 116.456 118.402 120.227L124.086 120.091ZM99.5743 120.294C99.7493 123.957 102.994 126.478 106.472 126.333L106.236 120.652C105.499 120.683 105.262 120.194 105.254 120.022L99.5743 120.294ZM106.053 113.733C102.656 113.874 99.571 116.493 99.571 120.158H105.257C105.257 120.043 105.301 119.893 105.466 119.735C105.635 119.574 105.915 119.429 106.289 119.414L106.053 113.733ZM112.816 119.843C112.725 116.14 109.475 113.73 106.171 113.73V119.416C106.532 119.416 106.802 119.544 106.958 119.681C107.106 119.81 107.13 119.918 107.131 119.982L112.816 119.843ZM106.463 126.334C109.811 126.205 112.994 123.55 112.813 119.777L107.134 120.048C107.137 120.118 107.119 120.226 106.981 120.362C106.835 120.505 106.581 120.639 106.245 120.652L106.463 126.334ZM80.6983 120.294C80.8734 123.957 84.1179 126.478 87.5961 126.333L87.3601 120.652C86.6234 120.683 86.386 120.194 86.3778 120.022L80.6983 120.294ZM87.1769 113.733C83.7804 113.874 80.695 116.493 80.695 120.158H86.381C86.381 120.043 86.4251 119.893 86.59 119.735C86.7587 119.574 87.0388 119.429 87.4129 119.414L87.1769 113.733ZM93.9397 119.843C93.8492 116.14 90.5989 113.73 87.2949 113.73V119.416C87.6555 119.416 87.9258 119.544 88.0819 119.681C88.2305 119.81 88.2538 119.918 88.2554 119.982L93.9397 119.843ZM87.5873 126.334C90.9354 126.205 94.1176 123.55 93.9373 119.777L88.2578 120.048C88.2611 120.118 88.2433 120.226 88.1052 120.362C87.9586 120.505 87.7045 120.639 87.369 120.652L87.5873 126.334ZM124.133 104.989C124.133 104.878 124.173 104.748 124.317 104.614C124.467 104.474 124.73 104.338 125.103 104.33L124.99 98.6454C121.577 98.7129 118.447 101.293 118.447 104.989H124.133ZM124.133 105.031V104.989H118.447V105.031H124.133ZM125.128 105.519C124.742 105.527 124.461 105.396 124.305 105.263C124.158 105.138 124.133 105.034 124.132 104.963L118.447 105.099C118.538 108.884 121.893 111.27 125.24 111.204L125.128 105.519ZM126.007 104.891C126.009 104.985 125.976 105.113 125.834 105.25C125.687 105.392 125.446 105.513 125.132 105.519L125.236 111.204C128.658 111.142 131.78 108.456 131.691 104.755L126.007 104.891ZM125.046 104.331C125.782 104.331 126.002 104.821 126.01 104.964L131.689 104.681C131.512 101.148 128.435 98.6449 125.046 98.6449V104.331Z" fill="url(#paint1_linear_2860_95)" mask="url(#path-3-outside-1_2860_95)"/>
</g>
<g filter="url(#filter2_bd_2860_95)">
<mask id="path-5-inside-2_2860_95" fill="white">
<path fill-rule="evenodd" clip-rule="evenodd" d="M92.6544 72.5542C92.6544 74.3925 91.1425 75.7639 89.1267 75.7639C87.1108 75.7639 85.5989 74.3925 85.5989 72.5542V59.8447C85.5989 58.0064 87.1108 56.6309 89.1267 56.6309C91.1425 56.6309 92.6544 58.0064 92.6544 59.8447V72.5542ZM126.925 72.5542C126.925 74.3925 125.368 75.7639 123.398 75.7639C121.382 75.7639 119.87 74.3925 119.87 72.5542V59.8447C119.87 58.0064 121.382 56.6309 123.398 56.6309C125.368 56.6309 126.925 58.0064 126.925 59.8447V72.5542Z"/>
</mask>
<path fill-rule="evenodd" clip-rule="evenodd" d="M92.6544 72.5542C92.6544 74.3925 91.1425 75.7639 89.1267 75.7639C87.1108 75.7639 85.5989 74.3925 85.5989 72.5542V59.8447C85.5989 58.0064 87.1108 56.6309 89.1267 56.6309C91.1425 56.6309 92.6544 58.0064 92.6544 59.8447V72.5542ZM126.925 72.5542C126.925 74.3925 125.368 75.7639 123.398 75.7639C121.382 75.7639 119.87 74.3925 119.87 72.5542V59.8447C119.87 58.0064 121.382 56.6309 123.398 56.6309C125.368 56.6309 126.925 58.0064 126.925 59.8447V72.5542Z" fill="url(#paint2_linear_2860_95)"/>
<path d="M89.1267 76.9011C91.6661 76.9011 93.7916 75.1202 93.7916 72.5542H91.5172C91.5172 73.6648 90.619 74.6267 89.1267 74.6267V76.9011ZM84.4617 72.5542C84.4617 75.1202 86.5873 76.9011 89.1267 76.9011V74.6267C87.6343 74.6267 86.7361 73.6648 86.7361 72.5542H84.4617ZM84.4617 59.8447V72.5542H86.7361V59.8447H84.4617ZM89.1267 55.4937C86.5852 55.4937 84.4617 57.2806 84.4617 59.8447H86.7361C86.7361 58.7323 87.6364 57.7681 89.1267 57.7681V55.4937ZM93.7916 59.8447C93.7916 57.2806 91.6681 55.4937 89.1267 55.4937V57.7681C90.617 57.7681 91.5172 58.7323 91.5172 59.8447H93.7916ZM93.7916 72.5542V59.8447H91.5172V72.5542H93.7916ZM123.398 76.9011C125.881 76.9011 128.063 75.1294 128.063 72.5542H125.788C125.788 73.6556 124.854 74.6267 123.398 74.6267V76.9011ZM118.733 72.5542C118.733 75.1202 120.858 76.9011 123.398 76.9011V74.6267C121.905 74.6267 121.007 73.6648 121.007 72.5542H118.733ZM118.733 59.8447V72.5542H121.007V59.8447H118.733ZM123.398 55.4937C120.856 55.4937 118.733 57.2806 118.733 59.8447H121.007C121.007 58.7323 121.907 57.7681 123.398 57.7681V55.4937ZM128.063 59.8447C128.063 57.2714 125.883 55.4937 123.398 55.4937V57.7681C124.852 57.7681 125.788 58.7415 125.788 59.8447H128.063ZM128.063 72.5542V59.8447H125.788V72.5542H128.063Z" fill="url(#paint3_linear_2860_95)" mask="url(#path-5-inside-2_2860_95)"/>
</g>
<g filter="url(#filter3_bd_2860_95)">
<mask id="path-7-inside-3_2860_95" fill="white">
<path fill-rule="evenodd" clip-rule="evenodd" d="M83.6261 105.069C83.7177 106.982 85.4587 108.487 87.5662 108.4C89.6278 108.32 91.2772 106.736 91.1855 104.815C91.1397 102.943 89.4446 101.48 87.3829 101.48C85.2754 101.568 83.6261 103.152 83.6261 105.069ZM102.455 105.069C102.547 106.982 104.288 108.487 106.395 108.4C108.457 108.32 110.106 106.736 110.015 104.815C109.969 102.943 108.274 101.48 106.212 101.48C104.105 101.568 102.455 103.152 102.455 105.069ZM121.285 120.196C121.285 122.113 122.98 123.697 125.088 123.739C127.241 123.739 128.982 122.155 128.982 120.196C128.982 118.241 127.241 116.657 125.088 116.657H125.042C122.935 116.698 121.239 118.278 121.285 120.196ZM106.395 123.531C104.288 123.618 102.547 122.113 102.455 120.196C102.455 118.278 104.105 116.699 106.212 116.611C108.274 116.611 109.969 118.074 110.015 119.95C110.106 121.868 108.457 123.452 106.395 123.531ZM87.5193 123.531C85.4118 123.618 83.6708 122.113 83.5792 120.196C83.5792 118.278 85.2285 116.699 87.336 116.611C89.3977 116.611 91.0929 118.074 91.1387 119.95C91.2303 121.868 89.581 123.452 87.5193 123.531ZM125.088 101.526C122.98 101.567 121.331 103.11 121.331 105.027V105.069C121.377 106.982 123.118 108.441 125.225 108.399C127.287 108.362 128.936 106.778 128.89 104.86C128.799 103.022 127.149 101.526 125.088 101.526Z"/>
</mask>
<path fill-rule="evenodd" clip-rule="evenodd" d="M83.6261 105.069C83.7177 106.982 85.4587 108.487 87.5662 108.4C89.6278 108.32 91.2772 106.736 91.1855 104.815C91.1397 102.943 89.4446 101.48 87.3829 101.48C85.2754 101.568 83.6261 103.152 83.6261 105.069ZM102.455 105.069C102.547 106.982 104.288 108.487 106.395 108.4C108.457 108.32 110.106 106.736 110.015 104.815C109.969 102.943 108.274 101.48 106.212 101.48C104.105 101.568 102.455 103.152 102.455 105.069ZM121.285 120.196C121.285 122.113 122.98 123.697 125.088 123.739C127.241 123.739 128.982 122.155 128.982 120.196C128.982 118.241 127.241 116.657 125.088 116.657H125.042C122.935 116.698 121.239 118.278 121.285 120.196ZM106.395 123.531C104.288 123.618 102.547 122.113 102.455 120.196C102.455 118.278 104.105 116.699 106.212 116.611C108.274 116.611 109.969 118.074 110.015 119.95C110.106 121.868 108.457 123.452 106.395 123.531ZM87.5193 123.531C85.4118 123.618 83.6708 122.113 83.5792 120.196C83.5792 118.278 85.2285 116.699 87.336 116.611C89.3977 116.611 91.0929 118.074 91.1387 119.95C91.2303 121.868 89.581 123.452 87.5193 123.531ZM125.088 101.526C122.98 101.567 121.331 103.11 121.331 105.027V105.069C121.377 106.982 123.118 108.441 125.225 108.399C127.287 108.362 128.936 106.778 128.89 104.86C128.799 103.022 127.149 101.526 125.088 101.526Z" fill="url(#paint4_linear_2860_95)"/>
<path d="M87.5662 108.4L87.5225 107.263L87.519 107.263L87.5662 108.4ZM83.6261 105.069H82.4889V105.096L82.4902 105.123L83.6261 105.069ZM91.1855 104.815L90.0487 104.843L90.049 104.856L90.0496 104.869L91.1855 104.815ZM87.3829 101.48V100.343H87.3593L87.3357 100.344L87.3829 101.48ZM106.395 108.4L106.352 107.263L106.348 107.263L106.395 108.4ZM102.455 105.069H101.318V105.096L101.319 105.123L102.455 105.069ZM110.015 104.815L108.878 104.843L108.878 104.856L108.879 104.869L110.015 104.815ZM106.212 101.48V100.343H106.188L106.165 100.344L106.212 101.48ZM125.088 123.739L125.065 124.876L125.077 124.876H125.088V123.739ZM121.285 120.196H122.422V120.182L122.422 120.169L121.285 120.196ZM125.042 116.657V115.52H125.031L125.02 115.52L125.042 116.657ZM102.455 120.196H101.318V120.223L101.319 120.25L102.455 120.196ZM106.395 123.531L106.352 122.394L106.348 122.394L106.395 123.531ZM106.212 116.611V115.474H106.188L106.165 115.475L106.212 116.611ZM110.015 119.95L108.878 119.978L108.878 119.991L108.879 120.004L110.015 119.95ZM83.5792 120.196H82.442V120.223L82.4433 120.25L83.5792 120.196ZM87.5193 123.531L87.4756 122.394L87.4721 122.394L87.5193 123.531ZM87.336 116.611V115.474H87.3124L87.2888 115.475L87.336 116.611ZM91.1387 119.95L90.0018 119.978L90.0021 119.991L90.0028 120.004L91.1387 119.95ZM125.088 101.526V100.388H125.076L125.065 100.389L125.088 101.526ZM121.331 105.069H120.194V105.082L120.194 105.096L121.331 105.069ZM125.225 108.399L125.204 107.262L125.203 107.262L125.225 108.399ZM128.89 104.86L130.027 104.833L130.027 104.818L130.026 104.804L128.89 104.86ZM87.519 107.263C85.9589 107.328 84.8201 106.229 84.7619 105.015L82.4902 105.123C82.6153 107.736 84.9584 109.646 87.6133 109.536L87.519 107.263ZM90.0496 104.869C90.1059 106.049 89.0686 107.204 87.5225 107.263L87.6098 109.536C90.1871 109.437 92.4484 107.424 92.3214 104.761L90.0496 104.869ZM87.3829 102.617C88.9485 102.617 90.0208 103.702 90.0487 104.843L92.3224 104.787C92.2587 102.184 89.9406 100.343 87.3829 100.343V102.617ZM84.7633 105.069C84.7633 103.849 85.84 102.682 87.4301 102.616L87.3357 100.344C84.7108 100.453 82.4889 102.454 82.4889 105.069H84.7633ZM106.348 107.263C104.788 107.328 103.649 106.229 103.591 105.015L101.319 105.123C101.444 107.736 103.788 109.646 106.442 109.536L106.348 107.263ZM108.879 104.869C108.935 106.049 107.898 107.204 106.352 107.263L106.439 109.536C109.016 109.437 111.278 107.424 111.151 104.761L108.879 104.869ZM106.212 102.617C107.778 102.617 108.85 103.702 108.878 104.843L111.152 104.787C111.088 102.184 108.77 100.343 106.212 100.343V102.617ZM103.592 105.069C103.592 103.849 104.669 102.682 106.259 102.616L106.165 100.344C103.54 100.453 101.318 102.454 101.318 105.069H103.592ZM125.11 122.602C123.525 122.571 122.422 121.401 122.422 120.196H120.148C120.148 122.825 122.436 124.824 125.065 124.876L125.11 122.602ZM127.845 120.196C127.845 121.428 126.717 122.602 125.088 122.602V124.876C127.766 124.876 130.119 122.882 130.119 120.196H127.845ZM125.088 117.794C126.718 117.794 127.845 118.968 127.845 120.196H130.119C130.119 117.513 127.765 115.52 125.088 115.52V117.794ZM125.042 117.794H125.088V115.52H125.042V117.794ZM122.422 120.169C122.394 118.992 123.469 117.825 125.065 117.794L125.02 115.52C122.4 115.572 120.085 117.564 120.148 120.223L122.422 120.169ZM101.319 120.25C101.444 122.866 103.787 124.777 106.442 124.667L106.348 122.394C104.789 122.459 103.649 121.361 103.591 120.142L101.319 120.25ZM106.165 115.475C103.542 115.584 101.318 117.579 101.318 120.196H103.592C103.592 118.978 104.667 117.813 106.259 117.747L106.165 115.475ZM111.152 119.922C111.088 117.316 108.771 115.474 106.212 115.474V117.748C107.777 117.748 108.85 118.833 108.878 119.978L111.152 119.922ZM106.439 124.667C109.015 124.568 111.278 122.556 111.151 119.896L108.879 120.004C108.935 121.179 107.899 122.335 106.352 122.394L106.439 124.667ZM82.4433 120.25C82.5683 122.866 84.9107 124.777 87.5665 124.667L87.4721 122.394C85.9129 122.459 84.7734 121.361 84.7151 120.142L82.4433 120.25ZM87.2888 115.475C84.6658 115.584 82.442 117.579 82.442 120.196H84.7164C84.7164 118.978 85.7913 117.813 87.3832 117.747L87.2888 115.475ZM92.2755 119.922C92.2119 117.316 89.8947 115.474 87.336 115.474V117.748C88.9008 117.748 89.9739 118.833 90.0018 119.978L92.2755 119.922ZM87.5629 124.667C90.1392 124.568 92.4017 122.556 92.2746 119.896L90.0028 120.004C90.0589 121.179 89.0227 122.335 87.4756 122.394L87.5629 124.667ZM122.468 105.027C122.468 103.821 123.525 102.694 125.11 102.663L125.065 100.389C122.435 100.441 120.194 102.398 120.194 105.027H122.468ZM122.468 105.069V105.027H120.194V105.069H122.468ZM125.203 107.262C123.591 107.294 122.496 106.206 122.468 105.042L120.194 105.096C120.258 107.758 122.644 109.588 125.248 109.536L125.203 107.262ZM127.753 104.888C127.782 106.092 126.722 107.235 125.204 107.262L125.246 109.536C127.852 109.489 130.09 107.464 130.027 104.833L127.753 104.888ZM125.088 102.663C126.619 102.663 127.697 103.757 127.754 104.917L130.026 104.804C129.901 102.288 127.68 100.388 125.088 100.388V102.663Z" fill="url(#paint5_linear_2860_95)" mask="url(#path-7-inside-3_2860_95)"/>
</g>
<g opacity="0.5" filter="url(#filter4_b_2860_95)">
<path d="M68.7837 87.1946C68.7837 88.9654 70.3095 90.3655 72.3546 90.3655L138.462 90.3655C140.507 90.3655 142.037 88.9654 142.037 87.1946C142.037 85.3827 140.507 84.0237 138.462 84.0237L72.3546 84.0237C70.3095 84.0237 68.7837 85.3827 68.7837 87.1946Z" fill="url(#paint6_linear_2860_95)" fill-opacity="0.5"/>
</g>
<defs>
<filter id="filter0_f_2860_95" x="0.709362" y="0.234219" width="168.429" height="167.689" filterUnits="userSpaceOnUse" color-interpolation-filters="sRGB">
<feFlood flood-opacity="0" result="BackgroundImageFix"/>
<feBlend mode="normal" in="SourceGraphic" in2="BackgroundImageFix" result="shape"/>
<feGaussianBlur stdDeviation="27.0084" result="effect1_foregroundBlur_2860_95"/>
</filter>
<filter id="filter1_b_2860_95" x="-6.54975" y="-8.2328" width="225.624" height="219.308" filterUnits="userSpaceOnUse" color-interpolation-filters="sRGB">
<feFlood flood-opacity="0" result="BackgroundImageFix"/>
<feGaussianBlur in="BackgroundImageFix" stdDeviation="34.1158"/>
<feComposite in2="SourceAlpha" operator="in" result="effect1_backgroundBlur_2860_95"/>
<feBlend mode="normal" in="SourceGraphic" in2="effect1_backgroundBlur_2860_95" result="shape"/>
</filter>
<filter id="filter2_bd_2860_95" x="42.9541" y="13.986" width="126.616" height="104.423" filterUnits="userSpaceOnUse" color-interpolation-filters="sRGB">
<feFlood flood-opacity="0" result="BackgroundImageFix"/>
<feGaussianBlur in="BackgroundImageFix" stdDeviation="21.3224"/>
<feComposite in2="SourceAlpha" operator="in" result="effect1_backgroundBlur_2860_95"/>
<feColorMatrix in="SourceAlpha" type="matrix" values="0 0 0 0 0 0 0 0 0 0 0 0 0 0 0 0 0 0 127 0" result="hardAlpha"/>
<feOffset dx="14.2149" dy="14.2149"/>
<feGaussianBlur stdDeviation="14.2149"/>
<feColorMatrix type="matrix" values="0 0 0 0 0.54902 0 0 0 0 0.54902 0 0 0 0 0.54902 0 0 0 0.2 0"/>
<feBlend mode="normal" in2="effect1_backgroundBlur_2860_95" result="effect2_dropShadow_2860_95"/>
<feBlend mode="normal" in="SourceGraphic" in2="effect2_dropShadow_2860_95" result="shape"/>
</filter>
<filter id="filter3_bd_2860_95" x="40.9344" y="58.8352" width="130.693" height="107.548" filterUnits="userSpaceOnUse" color-interpolation-filters="sRGB">
<feFlood flood-opacity="0" result="BackgroundImageFix"/>
<feGaussianBlur in="BackgroundImageFix" stdDeviation="21.3224"/>
<feComposite in2="SourceAlpha" operator="in" result="effect1_backgroundBlur_2860_95"/>
<feColorMatrix in="SourceAlpha" type="matrix" values="0 0 0 0 0 0 0 0 0 0 0 0 0 0 0 0 0 0 127 0" result="hardAlpha"/>
<feOffset dx="14.2149" dy="14.2149"/>
<feGaussianBlur stdDeviation="14.2149"/>
<feColorMatrix type="matrix" values="0 0 0 0 0.55 0 0 0 0 0.55 0 0 0 0 0.55 0 0 0 0.5 0"/>
<feBlend mode="normal" in2="effect1_backgroundBlur_2860_95" result="effect2_dropShadow_2860_95"/>
<feBlend mode="normal" in="SourceGraphic" in2="effect2_dropShadow_2860_95" result="shape"/>
</filter>
<filter id="filter4_b_2860_95" x="26.1389" y="41.3789" width="158.543" height="91.6315" filterUnits="userSpaceOnUse" color-interpolation-filters="sRGB">
<feFlood flood-opacity="0" result="BackgroundImageFix"/>
<feGaussianBlur in="BackgroundImageFix" stdDeviation="21.3224"/>
<feComposite in2="SourceAlpha" operator="in" result="effect1_backgroundBlur_2860_95"/>
<feBlend mode="normal" in="SourceGraphic" in2="effect1_backgroundBlur_2860_95" result="shape"/>
</filter>
<linearGradient id="paint0_linear_2860_95" x1="104.881" y1="48.8127" x2="76.5379" y2="123.984" gradientUnits="userSpaceOnUse">
<stop stop-color="#272727"/>
<stop offset="1" stop-color="#222222"/>
</linearGradient>
<linearGradient id="paint1_linear_2860_95" x1="77.8128" y1="71.831" x2="126.081" y2="136.506" gradientUnits="userSpaceOnUse">
<stop stop-color="white" stop-opacity="0.25"/>
<stop offset="1" stop-color="white" stop-opacity="0"/>
</linearGradient>
<linearGradient id="paint2_linear_2860_95" x1="124.434" y1="72.7948" x2="125.438" y2="58.4074" gradientUnits="userSpaceOnUse">
<stop stop-color="white"/>
<stop offset="1" stop-color="white" stop-opacity="0.2"/>
</linearGradient>
<linearGradient id="paint3_linear_2860_95" x1="123.298" y1="59.5239" x2="139.623" y2="66.3359" gradientUnits="userSpaceOnUse">
<stop stop-color="white" stop-opacity="0.25"/>
<stop offset="1" stop-color="white" stop-opacity="0"/>
</linearGradient>
<linearGradient id="paint4_linear_2860_95" x1="125.763" y1="105.5" x2="49.2893" y2="99.8938" gradientUnits="userSpaceOnUse">
<stop stop-color="white"/>
<stop offset="1" stop-color="white" stop-opacity="0.2"/>
</linearGradient>
<linearGradient id="paint5_linear_2860_95" x1="90.8066" y1="104.073" x2="100.748" y2="129.188" gradientUnits="userSpaceOnUse">
<stop stop-color="white" stop-opacity="0.25"/>
<stop offset="1" stop-color="white" stop-opacity="0"/>
</linearGradient>
<linearGradient id="paint6_linear_2860_95" x1="88.5552" y1="87.1051" x2="86.3948" y2="79.5771" gradientUnits="userSpaceOnUse">
<stop stop-color="white"/>
<stop offset="1" stop-color="white" stop-opacity="0.2"/>
</linearGradient>
</defs>
</svg>
